[center]
 
http://img221.imageshack.us/img221/2605/margincallnewposter.jpg



Margin.Call.2011.R5.DVDRip.XVID.AC3-5.1.HQ.Hive-CM8


Thx Hive

CM8 Doing It Right The First Time 


!!!!Cinema date is today!!!!!


Sources:

Video: Russian DVD-9
Predel.riska.2011.D.DVD

Audio: DVDScr Stereo Audio (No Line)
thx m8
+ Russian Sourround Channels


Encode:

the Russian DVD-9 Video was better than the screener, so i took the stereo audio and embededded it into the russian 5.1 track.
On to the Video, did the usual added sharpness,brightness,rgb and denoise
got very very nice
looks like a bdrip now 
enjoy that very early movie with nice cast, dont we all like kevin spacey 

PS: Everyone is allowed to use my audio as long you mention me in your info

Video: 720x384 @bitrate 1800 2pass
Audio: English AC3 5.1 @448
Sample: yes included

 
http://www.imdb.com/title/tt1615147/

General
Complete name                  : Margin.Call.2011.R5.DVDRip.XVID.AC3-5.1.HQ.Hive-CM8.avi
Format                         : AVI
Format/Info                    : Audio Video Interleave
File size                      : 1.61 GiB
Duration                       : 1h 42mn
Overall bit rate               : 2 258 Kbps
Writing application            : Nandub v1.0rc2
Writing library                : Nandub build 1853/release

Video
ID                             : 0
Format                         : MPEG-4 Visual
Format profile                 : Advanced Simple@L5
Format settings, BVOP          : 2
Format settings, QPel          : Yes
Format settings, GMC           : No warppoints
Format settings, Matrix        : Default (H.263)
Muxing mode                    : Packed bitstream
Codec ID                       : XVID
Codec ID/Hint                  : XviD
Duration                       : 1h 42mn
Bit rate                       : 1 800 Kbps
Width                          : 720 pixels
Height                         : 384 pixels
Display aspect ratio           : 1.875
Frame rate                     : 25.000 fps
Color space                    : YUV
Chroma subsampling             : 4:2:0
Bit depth                      : 8 bits
Scan type                      : Progressive
Compression mode               : Lossy
Bits/(Pixel*Frame)             : 0.260
Stream size                    : 1.28 GiB (80%)
Writing library                : XviD 1.2.1 (UTC 2008-12-04)

Audio
ID                             : 1
Format                         : AC-3
Format/Info                    : Audio Coding 3
Mode extension                 : CM (complete main)
Codec ID                       : 2000
Duration                       : 1h 42mn
Bit rate mode                  : Constant
Bit rate                       : 448 Kbps
Channel(s)                     : 6 channels
Channel positions              : Front: L C R, Side: L R, LFE
Sampling rate                  : 48.0 KHz
Bit depth                      : 16 bits
Compression mode               : Lossy
Stream size                    : 327 MiB (20%)
Alignment                      : Split accross interleaves
Interleave, duration           : 40 ms (1.00 video frame)
Interleave, preload duration   : 500 ms


Plot:

A thriller that revolves around the key people at a investment bank over a 24-hour period 
during the early stages of the financial crisis. 

Cast:

Kevin Spacey	... Sam Rogers
Paul Bettany	... Will Emerson
Jeremy Irons	... John Tuld
Zachary Quinto	... Peter Sullivan
Penn Badgley	... Seth Bregman
Simon Baker	... Jared Cohen
Mary McDonnell	... Mary Rogers
Demi Moore	... Sarah Robertson
 
http://img818.imageshack.us/img818/6435/38642934.png 
http://img832.imageshack.us/img832/7050/mamam.png 
http://img535.imageshack.us/img535/1735/mamamae.png 
http://img706.imageshack.us/img706/104/mamamama.png
